<svg xmlns="http://www.w3.org/2000/svg" viewBox="0 0 64 64">
	<title>XamlIn Logo</title>
	<defs>
		<linearGradient id="grad1" x1="0%" y1="0%" x2="100%" y2="100%">
			<stop offset="0%" style="stop-color:rgb(33,33,33);stop-opacity:1" />
			<stop offset="100%" style="stop-color:rgb(3,3,3);stop-opacity:1" />
		</linearGradient>
	</defs>
	<defs>
		<linearGradient id="grad2" x1="0%" y1="0%" x2="100%" y2="100%">
			<stop offset="0%" style="stop-color:rgb(99,99,99);stop-opacity:1" />
			<stop offset="100%" style="stop-color:rgb(66,66,66);stop-opacity:1" />
		</linearGradient>
	</defs>
	<polygon fill="url(#grad1)" points="16,32 24,18.2 40,18.2 32,32" />
	<polygon fill="url(#grad1)" points="24,45.2 40,45.2 48,32 32,32" />
	<polygon fill="url(#grad2)" points="16,32 24,45.2 32,32 40,18.2 48,32" />
	<polygon fill="white" points="20,16 24,16 44,48 40,48" />
	<polygon fill="white" points="20,48 24,48 44,16 40,16" />

	<polygon fill="black" points="20,16 24,16 25.4,18.2 22.7,20.5" />
	<polygon fill="black" points="44,16 40,16 38.6,18.2 41.3,20.5" />
	<polygon fill="black" points="20,48 24,48 25.8,45.2 22.9,43.3" />
	<polygon fill="black" points="44,48 40,48 38.2,45.2 41.1,43.3" />
</svg>
